# https://github.com/mikedh/trimesh
v 0.01131613 0.08401389 0.69837694
v 0.05662130 0.08342398 0.69837694
v 0.05662130 0.08344100 0.68327248
v 0.05662130 0.08344667 0.67572490
v 0.01131613 0.08401389 0.65107249
v -0.03397530 0.08378700 0.69837694
v 0.06289537 0.08321978 0.69837694
v 0.05662130 0.08344100 0.66817729
v 0.04907044 0.08353175 0.65107249
v 0.06289537 0.08321978 0.69837231
v -0.03396157 0.08378700 0.65107249
v -0.05661415 0.08342398 0.67572490
v -0.05661415 0.08340129 0.69837694
v 0.06667080 0.08246538 0.69837694
v 0.06069876 0.08322545 0.66817729
v 0.06056147 0.08315738 0.66230128
v 0.05485027 0.08327650 0.65107249
v 0.06667080 0.08246538 0.69837231
v -0.04906329 0.08349204 0.65107249
v -0.05661415 0.08341263 0.66817729
v -0.06281958 0.08321411 0.69837231
v -0.06281958 0.08321411 0.69837694
v 0.06901843 0.07868771 0.69837694
v 0.06006723 0.08297588 0.65726800
v 0.05762350 0.08246538 0.65107249
v 0.06901843 0.07868771 0.69837231
v -0.05338788 0.08332188 0.65107249
v -0.06054060 0.08314604 0.66258837
v -0.06067789 0.08321411 0.66817729
v -0.06659501 0.08244836 0.69837231
v -0.06659501 0.08244836 0.69837694
v 0.07010301 0.07172228 0.69837694
v 0.06124791 0.07839843 0.65307746
v 0.06106944 0.07788226 0.65107249
v 0.05958672 0.08033831 0.65107249
v 0.05876299 0.08147275 0.65107249
v 0.05895520 0.08217610 0.65307746
v 0.07010301 0.07172228 0.69837231
v 0.06834572 0.07696904 0.69082472
v -0.05465093 0.08325948 0.65107249
v -0.05984043 0.08292483 0.65755509
v -0.06901129 0.07867069 0.69837231
v -0.06901129 0.07867069 0.69837694
v 0.07011674 0.04907327 0.69837694
v 0.07011674 0.04907894 0.69837231
v 0.06798877 0.07570982 0.68677772
v 0.06161859 0.07353737 0.65107249
v 0.06343080 0.07172228 0.66062507
v -0.05856364 0.08140468 0.65107249
v -0.05871466 0.08209669 0.65307746
v -0.06106229 0.07781419 0.65107249
v -0.06124077 0.07831902 0.65307746
v -0.06835230 0.07695770 0.69082472
v -0.07009587 0.07172228 0.69837231
v -0.07009587 0.07172228 0.69837694
v 0.07011674 0.03397392 0.69837694
v 0.07011674 0.03397960 0.69837231
v 0.06172842 0.07172228 0.65107249
v 0.06208537 0.05662293 0.65307746
v 0.06172842 0.05662293 0.65107249
v -0.06173501 0.07172228 0.65107249
v -0.06799535 0.07570982 0.68677772
v -0.07010960 0.04907894 0.69837231
v -0.06209195 0.07172228 0.65307746
v -0.07010960 0.04907894 0.69837694
v 0.07010301 0.02642425 0.69837694
v 0.07010301 0.02607825 0.69837231
v 0.06167351 0.04907894 0.65107249
v -0.06173501 0.05662293 0.65107249
v -0.07010960 0.04152927 0.69837231
v -0.06209195 0.05662293 0.65307746
v -0.07010960 0.04152927 0.69837694
v 0.06271690 0.02607825 0.69837694
v 0.06848301 0.02607825 0.68982918
v 0.06101452 0.04424057 0.65107249
v -0.06157026 0.04907894 0.65107249
v -0.06855824 0.02607825 0.69028295
v -0.07002722 0.02607825 0.69804355
v -0.07008214 0.02607825 0.69837231
v -0.07008214 0.02642992 0.69837694
v -0.06354721 0.02607825 0.69837694
v 0.06510572 0.02607825 0.68365218
v 0.04389466 0.02607825 0.65107249
v -0.06140551 0.04740564 0.65107249
v -0.06789925 0.02607825 0.68715278
v -0.04213023 0.02607825 0.65107249
v -0.06089755 0.04445044 0.65107249
f 1 2 3
f 1 3 4
f 1 4 5
f 1 5 6
f 1 6 13
f 1 13 22
f 1 22 31
f 1 31 43
f 1 43 55
f 1 55 65
f 1 65 72
f 1 72 80
f 1 80 81
f 1 81 73
f 1 73 66
f 1 66 56
f 1 56 44
f 1 44 32
f 1 32 23
f 1 23 14
f 1 14 7
f 1 7 2
f 2 7 3
f 3 7 4
f 4 8 9
f 4 9 5
f 4 7 10
f 4 10 8
f 5 9 17
f 5 17 25
f 5 25 36
f 5 36 35
f 5 35 34
f 5 34 47
f 5 47 58
f 5 58 60
f 5 60 68
f 5 68 75
f 5 75 83
f 5 83 86
f 5 86 87
f 5 87 84
f 5 84 76
f 5 76 69
f 5 69 61
f 5 61 51
f 5 51 49
f 5 49 40
f 5 40 27
f 5 27 19
f 5 19 11
f 5 11 6
f 6 11 12
f 6 12 13
f 7 14 18
f 7 18 10
f 8 10 15
f 8 15 16
f 8 16 17
f 8 17 9
f 10 18 15
f 11 19 20
f 11 20 12
f 12 20 21
f 12 21 22
f 12 22 13
f 14 23 26
f 14 26 18
f 15 18 16
f 16 18 24
f 16 24 17
f 17 24 25
f 18 26 24
f 19 27 20
f 20 27 28
f 20 28 29
f 20 29 21
f 21 29 30
f 21 30 31
f 21 31 22
f 23 32 38
f 23 38 26
f 24 26 33
f 24 33 34
f 24 34 35
f 24 35 36
f 24 36 37
f 24 37 25
f 25 37 36
f 26 38 39
f 26 39 33
f 27 40 28
f 28 41 42
f 28 42 30
f 28 30 29
f 28 40 41
f 30 42 43
f 30 43 31
f 32 44 45
f 32 45 38
f 33 39 34
f 34 39 46
f 34 46 47
f 38 45 48
f 38 48 46
f 38 46 39
f 40 49 50
f 40 50 41
f 41 50 49
f 41 49 51
f 41 51 52
f 41 52 42
f 42 53 54
f 42 54 55
f 42 55 43
f 42 52 53
f 44 56 57
f 44 57 45
f 45 57 48
f 46 48 58
f 46 58 47
f 48 57 59
f 48 59 60
f 48 60 58
f 51 61 62
f 51 62 53
f 51 53 52
f 53 62 54
f 54 63 65
f 54 65 55
f 54 62 64
f 54 64 63
f 56 66 67
f 56 67 57
f 57 67 60
f 57 60 59
f 60 67 68
f 61 69 71
f 61 71 64
f 61 64 62
f 63 70 72
f 63 72 65
f 63 64 71
f 63 71 70
f 66 73 67
f 67 74 68
f 67 73 81
f 67 81 79
f 67 79 78
f 67 78 77
f 67 77 85
f 67 85 86
f 67 86 83
f 67 83 82
f 67 82 74
f 68 74 75
f 69 76 77
f 69 77 78
f 69 78 71
f 70 78 79
f 70 79 72
f 70 71 78
f 72 79 80
f 74 82 75
f 75 82 83
f 76 84 85
f 76 85 77
f 79 81 80
f 84 87 85
f 85 87 86

