# https://github.com/mikedh/trimesh
v -0.13915249 -0.07926586 0.00377707
v -0.13751889 -0.07926586 -0.00182828
v -0.13749166 -0.08681107 -0.00180834
v -0.13907081 -0.08681107 0.00377707
v -0.13909804 -0.08681107 0.01132791
v -0.13912526 -0.07926586 0.01132791
v -0.13915249 0.04151187 0.00377707
v -0.13210080 -0.07926586 -0.00390537
v -0.13210080 -0.08681107 -0.00388543
v -0.13751889 0.07926513 -0.00182828
v -0.13210080 -0.09435627 -0.00382958
v -0.13210080 -0.10190148 -0.00375385
v -0.13210080 -0.10947391 -0.00367014
v -0.13210080 -0.11701913 -0.00358243
v -0.13740999 -0.09435627 -0.00175254
v -0.13730108 -0.10190148 -0.00167676
v -0.13719218 -0.10947391 -0.00159701
v -0.13708328 -0.11701913 -0.00150935
v -0.13697437 -0.12456433 -0.00141363
v -0.13893468 -0.09435627 0.00377707
v -0.13740999 -0.09435627 0.01683758
v -0.13749166 -0.08681107 0.01688542
v -0.13751889 -0.07926586 0.01690135
v -0.13877133 -0.10190148 0.01132791
v -0.13694715 -0.13210953 0.01643889
v -0.13705605 -0.12456433 0.01656249
v -0.13724663 -0.10947391 0.01671000
v -0.13912526 0.01884902 0.01132791
v -0.13912526 0.05660228 0.00377707
v -0.12455900 -0.12456433 -0.00414855
v -0.13210080 0.07926513 -0.00390537
v -0.13898913 0.07926513 0.00377707
v -0.13746444 0.08681034 -0.00179637
v -0.13210080 0.08681034 -0.00387346
v -0.13210080 -0.12456433 -0.00349072
v -0.13683822 -0.13210953 -0.00127012
v -0.13855352 -0.10947391 0.00377707
v -0.13841737 -0.11701913 0.01132791
v -0.13210080 -0.12456433 0.01858774
v -0.13210080 -0.08681107 0.01891067
v -0.13210080 -0.11701913 0.01866350
v -0.13210080 -0.10947391 0.01873525
v -0.13210080 -0.10190148 0.01880302
v -0.13210080 -0.09435627 0.01886283
v -0.13210080 -0.07926586 0.01892662
v -0.13751889 0.01130382 0.01690135
v -0.13819956 -0.12456433 0.01132791
v -0.13795453 -0.13210953 0.01132791
v -0.13653873 -0.13663119 0.01593656
v -0.13210080 -0.13210953 0.01834455
v -0.13909804 0.02642147 0.01132791
v -0.13901636 0.04151187 0.01132791
v 0.12456503 -0.12456433 -0.00414855
v -0.01886507 -0.13210953 -0.00390537
v -0.11701722 -0.13210953 -0.00389340
v -0.12455900 -0.13210953 -0.00388939
v -0.12455900 0.12456359 -0.00414855
v -0.13896191 0.04905708 0.01132791
v -0.13879855 0.06417473 0.01132791
v -0.13890746 0.08681034 0.00377707
v -0.13732831 0.09435554 -0.00170866
v -0.13210080 0.10190074 -0.00365417
v -0.13210080 0.09435554 -0.00378175
v -0.13210080 -0.13210953 -0.00321563
v -0.13784562 -0.13210953 0.00377707
v -0.13811788 -0.12456433 0.00377707
v -0.13645706 -0.13657672 -0.00077974
v -0.04287899 -0.07172066 0.03657583
v -0.04413142 -0.04905781 0.03657583
v -0.13210080 0.01130382 0.01892662
v -0.13210080 0.01884902 0.01891863
v -0.13749166 0.01884902 0.01689339
v -0.13678377 -0.13693083 0.00377707
v -0.13683822 -0.13695806 0.01132791
v -0.13210080 -0.13856517 0.01132791
v -0.13210080 -0.13723045 0.01661831
v -0.12455900 -0.13210953 0.01891067
v -0.03838659 -0.08332447 0.03657583
v -0.04102758 -0.07926586 0.03657583
v -0.04168102 -0.07665092 0.03657583
v -0.13746444 0.02642147 0.01686947
v -0.13738276 0.04151187 0.01680966
v -0.13730108 0.05660228 0.01674587
v -0.13708328 0.09435554 0.01657045
v 0.13210681 -0.12456433 -0.00390136
v 0.12456503 -0.13210953 -0.00390537
v 0.12456503 0.12456359 -0.00414855
v -0.02640686 -0.13750285 -0.00182828
v -0.12455900 -0.13750285 -0.00181631
v -0.13210080 -0.13720323 -0.00149338
v -0.13210080 0.10947319 -0.00351066
v -0.13210080 0.11701839 -0.00335518
v -0.13210080 0.12456359 -0.00317976
v -0.12455900 0.13210879 -0.00389340
v -0.10190641 0.13210879 -0.00389736
v -0.06417025 0.13210879 -0.00390136
v -0.01886507 0.13210879 -0.00390537
v -0.13694715 0.11701839 0.01645086
v -0.13689269 0.12456359 0.01641099
v -0.13855352 0.08681034 0.01132791
v -0.13836292 0.10190074 0.01132791
v -0.13825401 0.10947319 0.01132791
v -0.13809066 0.11701839 0.01132791
v -0.13852629 0.10190074 0.00377707
v -0.13716495 0.10190074 -0.00157712
v -0.13210080 -0.13853793 0.00377707
v -0.04413142 -0.03396740 0.03657583
v -0.04404974 0.03655438 0.03657583
v -0.04399529 0.04151187 0.03657583
v -0.04361411 0.07171993 0.03657583
v -0.13210080 0.02642147 0.01889472
v -0.13210080 0.03396667 0.01886681
v -0.13210080 0.04905708 0.01880701
v -0.13210080 0.05660228 0.01877512
v -0.13210080 0.07171993 0.01870735
v -0.12455900 -0.13908271 0.00377707
v -0.12455900 -0.13908271 0.01132791
v -0.12455900 -0.13747562 0.01688542
v -0.10944821 -0.13750285 0.01688542
v -0.10190641 -0.13750285 0.01688940
v -0.10944821 -0.13210953 0.01891465
v 0.01130208 -0.08403269 0.03657583
v -0.03394864 -0.08378753 0.03657583
v -0.03686190 -0.08348791 0.03657583
v -0.13210080 0.08681034 0.01863560
v -0.13210080 0.10190074 0.01855984
v -0.13210080 0.10947319 0.01851997
v -0.13210080 0.11701839 0.01848009
v -0.13210080 0.12456359 0.01843624
v -0.13716495 0.07926513 0.01664621
v 0.13210681 -0.10190148 -0.00387742
v 0.13749769 -0.12456433 -0.00182427
v 0.13698038 -0.13047519 -0.00121828
v 0.13265135 -0.13265432 -0.00229472
v 0.13047321 -0.13695806 -0.00121828
v 0.12456503 -0.13750285 -0.00182828
v 0.01887109 0.13210879 -0.00390537
v 0.04906547 0.13210879 -0.00390136
v 0.10191244 0.13210879 -0.00389340
v 0.12456503 0.13210879 -0.00388939
v 0.13210681 0.13210879 -0.00339505
v 0.13210681 0.12456359 -0.00359040
v 0.13210681 0.10947319 -0.00361434
v 0.13210681 0.08681034 -0.00364620
v 0.13210681 0.07171993 -0.00366614
v 0.13210681 0.02642147 -0.00372594
v 0.13210681 -0.01884976 -0.00378175
v 0.13210681 -0.04905781 -0.00381766
v 0.13210681 -0.09435627 -0.00386945
v 0.12456503 -0.13913719 0.00377707
v -0.08682284 -0.13910994 0.00377707
v -0.13700160 0.10947319 -0.00143757
v -0.13683822 0.11701839 -0.00127809
v -0.13667486 0.12456359 -0.00110267
v -0.13648428 0.13210879 -0.00087546
v -0.13210080 0.13210879 -0.00282492
v -0.13210080 0.13701181 -0.00127809
v -0.12455900 0.13750213 -0.00181631
v -0.10944821 0.13750213 -0.00182031
v -0.07171204 0.13750213 -0.00182427
v -0.03394864 0.13750213 -0.00182828
v -0.13681099 0.13210879 0.01631930
v -0.13790007 0.12456359 0.01132791
v -0.13828124 0.10947319 0.00377707
v -0.04110926 0.07926513 0.03657583
v -0.13210080 0.13210879 0.01822894
v -0.07171204 -0.13910994 0.01132791
v -0.01132328 -0.13750285 0.01690135
v -0.01886507 -0.13210953 0.01892662
v 0.03395467 -0.08337895 0.03657583
v 0.01887109 -0.13210953 0.01892662
v 0.04906547 -0.13210953 0.01892264
v 0.10191244 -0.13210953 0.01891465
v 0.12456503 -0.13210953 0.01891067
v 0.13899516 -0.12456433 0.00377707
v 0.13749769 -0.11701913 -0.00181631
v 0.13736156 -0.13265432 0.00358570
v 0.13551016 -0.13551441 0.00094251
v 0.13265135 -0.13742112 0.00358570
v 0.01887109 0.13750213 -0.00182828
v 0.10945422 0.13750213 -0.00181631
v 0.12456503 0.13747488 -0.00181230
v 0.13210681 0.13728421 -0.00160102
v 0.11702325 0.13750213 -0.00181230
v 0.13703483 0.13210879 -0.00144954
v 0.13662644 0.13668494 -0.00092726
v 0.13708928 0.12456359 -0.00151732
v 0.13711653 0.11701839 -0.00152528
v 0.13714376 0.10190074 -0.00154918
v 0.13717098 0.08681034 -0.00156911
v 0.13730711 0.00375862 -0.00167676
v 0.13744324 -0.07926586 -0.00177643
v 0.13747047 -0.09435627 -0.00179237
v 0.13210681 -0.13842898 0.01132791
v 0.12456503 -0.13908271 0.01132791
v 0.10945422 -0.13910994 0.01132791
v -0.13730108 0.13210879 0.00377707
v -0.13621202 0.13630360 -0.00049272
v -0.13800898 0.11701839 0.00377707
v -0.13768227 0.12456359 0.00377707
v -0.13210080 0.13823756 0.00377707
v -0.12455900 0.13910922 0.00377707
v -0.13645706 0.13657600 0.01587280
v -0.13762779 0.13210879 0.01132791
v -0.04015633 0.08065432 0.03657583
v -0.12455900 0.13210879 0.01891465
v -0.13210080 0.13720248 0.01657045
v -0.03830491 0.08329650 0.03657583
v 0.01130208 -0.13750285 0.01690135
v 0.03820203 -0.08324276 0.03657583
v 0.04152368 -0.13750285 0.01689737
v 0.09437065 -0.13750285 0.01688940
v 0.12456503 -0.13747562 0.01688542
v 0.13210681 -0.13733942 0.01671797
v 0.13210681 -0.13210953 0.01851997
v 0.13894071 -0.01884976 0.01132791
v 0.13888626 -0.04151260 0.01132791
v 0.13872290 -0.10947391 0.01132791
v 0.13866843 -0.12456433 0.01132791
v 0.13817836 -0.13210953 0.01132791
v 0.13896794 -0.06414821 0.00377707
v 0.13896794 0.06417473 0.01132791
v 0.13896794 -0.00375935 0.01132791
v 0.13894071 -0.00375935 0.00377707
v 0.13676257 -0.13682188 0.01132791
v 0.13627248 -0.13627710 0.00597773
v 0.12456503 0.13910922 0.00377707
v 0.13210681 0.13837376 0.00377707
v 0.13801501 0.13210879 0.00377707
v 0.13853230 0.12456359 0.00377707
v 0.13668089 0.13676667 0.00377707
v 0.13855953 0.11701839 0.00377707
v 0.13885903 0.02642147 0.00377707
v 0.13668089 -0.13674016 0.01607213
v -0.13648428 0.13663047 0.00377707
v -0.13210080 0.13842824 0.01132791
v -0.13667486 0.13682114 0.01132791
v -0.12455900 0.13908197 0.01132791
v -0.09436463 0.13910922 0.01132791
v 0.12456503 0.13913647 0.01132791
v -0.05660124 0.13210879 0.01892264
v -0.11701722 0.13750213 0.01688940
v -0.12455900 0.13747488 0.01688542
v -0.03394864 0.08373233 0.03657583
v -0.01132328 0.08400472 0.03657583
v 0.01130208 0.08403195 0.03657583
v 0.04005344 -0.08062781 0.03657583
v 0.13714376 -0.13210953 0.01661431
v 0.13210681 -0.12456433 0.01870735
v 0.04362014 -0.07172066 0.03657583
v 0.04100638 -0.07926586 0.03657583
v 0.13725266 -0.09435627 0.01671000
v 0.13722543 -0.10947391 0.01669405
v 0.13719821 -0.12456433 0.01667810
v 0.13894071 0.12456359 0.01132791
v 0.13749769 0.12456359 0.01689737
v 0.13749769 0.10947319 0.01688542
v 0.13744324 0.06417473 0.01684953
v 0.13738879 0.01884902 0.01680966
v 0.13727989 -0.07172066 0.01672994
v 0.13262412 0.13739316 0.01145948
v 0.13730711 0.13262633 0.01145948
v 0.13621803 0.13624913 0.00902757
v 0.12456503 0.13750213 0.01690135
v 0.13047321 0.13695734 0.01629937
v -0.04905944 0.13750213 0.01689737
v -0.01132328 0.13750213 0.01690135
v -0.01886507 0.13210879 0.01892662
v 0.03395467 0.08375957 0.03657583
v 0.12456503 0.13210879 0.01892662
v 0.13210681 -0.08681107 0.01874322
v 0.04411022 -0.03396740 0.03657583
v 0.04405576 -0.04151260 0.03657583
v 0.13698038 0.13047447 0.01629937
v 0.13210681 0.12456359 0.01892264
v 0.13210681 0.11701839 0.01891863
v 0.13210681 0.10190074 0.01890669
v 0.13210681 0.07171993 0.01888277
v 0.13210681 0.03396667 0.01885086
v 0.13210681 -0.00375935 0.01881898
v 0.13210681 -0.05660301 0.01877114
v 0.13551016 0.13548644 0.01406281
v 0.13262412 0.13262633 0.01735186
v 0.03833816 0.08332374 0.03657583
v 0.04411022 -0.00375935 0.03657583
v 0.03931832 0.08193455 0.03657583
v 0.04114251 0.07926513 0.03657583
v 0.04367459 0.07171993 0.03657583
v 0.04408299 0.00375862 0.03657583
f 1 2 3
f 1 3 4
f 1 4 5
f 1 5 6
f 1 6 28
f 1 28 7
f 1 7 10
f 1 10 2
f 2 8 9
f 2 9 3
f 2 10 31
f 2 31 8
f 3 9 11
f 3 11 12
f 3 12 13
f 3 13 14
f 3 14 15
f 3 15 4
f 4 15 16
f 4 16 17
f 4 17 18
f 4 18 19
f 4 19 20
f 4 20 5
f 5 21 22
f 5 22 23
f 5 23 6
f 5 20 24
f 5 24 25
f 5 25 26
f 5 26 27
f 5 27 21
f 6 23 46
f 6 46 28
f 7 28 29
f 7 29 10
f 8 30 9
f 8 31 57
f 8 57 30
f 9 30 11
f 10 29 32
f 10 32 33
f 10 33 34
f 10 34 31
f 11 30 12
f 12 30 13
f 13 30 14
f 14 30 35
f 14 35 15
f 15 35 16
f 16 35 17
f 17 35 18
f 18 35 19
f 19 35 36
f 19 36 20
f 20 36 37
f 20 37 38
f 20 38 24
f 21 27 39
f 21 39 22
f 22 40 23
f 22 39 41
f 22 41 42
f 22 42 43
f 22 43 44
f 22 44 40
f 23 40 45
f 23 45 70
f 23 70 46
f 24 38 25
f 25 38 47
f 25 47 48
f 25 48 49
f 25 49 50
f 25 50 39
f 25 39 26
f 26 39 27
f 28 46 51
f 28 51 29
f 29 51 52
f 29 52 32
f 30 53 86
f 30 86 54
f 30 54 55
f 30 55 56
f 30 56 35
f 30 57 87
f 30 87 53
f 31 34 57
f 32 52 58
f 32 58 59
f 32 59 100
f 32 100 60
f 32 60 33
f 33 60 61
f 33 61 62
f 33 62 63
f 33 63 34
f 34 63 57
f 35 56 64
f 35 64 36
f 36 65 66
f 36 66 37
f 36 64 67
f 36 67 65
f 37 66 47
f 37 47 38
f 39 50 68
f 39 68 69
f 39 69 41
f 40 44 69
f 40 69 45
f 41 69 42
f 42 69 43
f 43 69 44
f 45 69 107
f 45 107 70
f 46 70 71
f 46 71 72
f 46 72 51
f 47 66 48
f 48 66 65
f 48 65 73
f 48 73 74
f 48 74 49
f 49 74 75
f 49 75 76
f 49 76 50
f 50 77 78
f 50 78 79
f 50 79 80
f 50 80 68
f 50 76 77
f 51 72 81
f 51 81 52
f 52 81 82
f 52 82 83
f 52 83 84
f 52 84 58
f 53 85 86
f 53 87 85
f 54 88 89
f 54 89 55
f 54 86 136
f 54 136 88
f 55 89 56
f 56 90 64
f 56 89 90
f 57 63 62
f 57 62 91
f 57 91 92
f 57 92 93
f 57 93 94
f 57 94 95
f 57 95 96
f 57 96 97
f 57 97 137
f 57 137 87
f 58 84 98
f 58 98 99
f 58 99 59
f 59 99 100
f 60 100 101
f 60 101 102
f 60 102 103
f 60 103 163
f 60 163 104
f 60 104 61
f 61 104 105
f 61 105 93
f 61 93 92
f 61 92 91
f 61 91 62
f 64 90 67
f 65 67 73
f 67 90 106
f 67 106 73
f 68 80 79
f 68 79 78
f 68 78 124
f 68 124 123
f 68 123 122
f 68 122 170
f 68 170 210
f 68 210 247
f 68 247 251
f 68 251 250
f 68 250 273
f 68 273 272
f 68 272 285
f 68 285 289
f 68 289 288
f 68 288 287
f 68 287 286
f 68 286 284
f 68 284 269
f 68 269 246
f 68 246 245
f 68 245 244
f 68 244 208
f 68 208 205
f 68 205 165
f 68 165 110
f 68 110 109
f 68 109 108
f 68 108 107
f 68 107 69
f 70 108 71
f 70 107 108
f 71 108 109
f 71 109 110
f 71 110 111
f 71 111 72
f 72 111 112
f 72 112 113
f 72 113 114
f 72 114 115
f 72 115 81
f 73 106 74
f 74 106 75
f 75 106 116
f 75 116 117
f 75 117 76
f 76 118 77
f 76 117 118
f 77 118 119
f 77 119 120
f 77 120 121
f 77 121 122
f 77 122 123
f 77 123 124
f 77 124 78
f 81 115 125
f 81 125 126
f 81 126 127
f 81 127 128
f 81 128 129
f 81 129 82
f 82 129 83
f 83 130 84
f 83 129 130
f 84 129 98
f 84 130 129
f 85 131 132
f 85 132 133
f 85 133 134
f 85 134 86
f 85 87 131
f 86 134 135
f 86 135 136
f 87 137 138
f 87 138 139
f 87 139 140
f 87 140 141
f 87 141 142
f 87 142 143
f 87 143 144
f 87 144 145
f 87 145 146
f 87 146 147
f 87 147 148
f 87 148 149
f 87 149 131
f 88 150 89
f 88 136 150
f 89 150 151
f 89 151 116
f 89 116 90
f 90 116 106
f 93 105 152
f 93 152 153
f 93 153 154
f 93 154 155
f 93 155 156
f 93 156 94
f 94 156 157
f 94 157 158
f 94 158 159
f 94 159 95
f 95 159 160
f 95 160 96
f 96 160 161
f 96 161 97
f 97 161 180
f 97 180 137
f 98 129 99
f 99 129 162
f 99 162 101
f 99 101 100
f 101 162 102
f 102 162 103
f 103 162 163
f 104 164 155
f 104 155 154
f 104 154 153
f 104 153 152
f 104 152 105
f 104 163 164
f 110 115 114
f 110 114 113
f 110 113 112
f 110 112 111
f 110 165 166
f 110 166 129
f 110 129 128
f 110 128 127
f 110 127 126
f 110 126 125
f 110 125 115
f 116 151 117
f 117 119 118
f 117 151 167
f 117 167 119
f 119 167 120
f 120 168 169
f 120 169 121
f 120 167 168
f 121 169 122
f 122 169 171
f 122 171 172
f 122 172 173
f 122 173 174
f 122 174 170
f 129 166 162
f 131 149 176
f 131 176 132
f 132 175 133
f 132 176 175
f 133 175 177
f 133 177 178
f 133 178 135
f 133 135 134
f 135 178 179
f 135 179 150
f 135 150 136
f 137 180 181
f 137 181 138
f 138 181 139
f 139 181 140
f 140 182 183
f 140 183 141
f 140 181 184
f 140 184 182
f 141 185 142
f 141 183 186
f 141 186 185
f 142 187 188
f 142 188 189
f 142 189 190
f 142 190 191
f 142 191 192
f 142 192 193
f 142 193 143
f 142 185 187
f 143 193 176
f 143 176 144
f 144 176 145
f 145 176 146
f 146 176 147
f 147 176 148
f 148 176 149
f 150 194 195
f 150 195 196
f 150 196 167
f 150 167 151
f 150 179 194
f 155 197 198
f 155 198 156
f 155 164 199
f 155 199 200
f 155 200 197
f 156 198 157
f 157 198 201
f 157 201 202
f 157 202 158
f 158 202 159
f 159 202 160
f 160 202 161
f 161 202 227
f 161 227 180
f 162 166 203
f 162 203 204
f 162 204 163
f 163 204 199
f 163 199 164
f 165 205 166
f 166 206 207
f 166 207 203
f 166 205 208
f 166 208 206
f 167 196 209
f 167 209 168
f 168 209 171
f 168 171 169
f 170 174 210
f 171 209 211
f 171 211 172
f 172 211 212
f 172 212 173
f 173 212 174
f 174 212 213
f 174 213 214
f 174 214 215
f 174 215 210
f 175 216 217
f 175 217 218
f 175 218 219
f 175 219 220
f 175 220 177
f 175 176 221
f 175 221 222
f 175 222 223
f 175 223 216
f 176 193 224
f 176 224 221
f 177 225 226
f 177 226 178
f 177 220 225
f 178 226 179
f 179 226 225
f 179 225 194
f 180 227 181
f 181 227 184
f 182 184 227
f 182 227 183
f 183 227 228
f 183 228 186
f 185 229 230
f 185 230 187
f 185 186 229
f 186 228 231
f 186 231 229
f 187 230 188
f 188 230 232
f 188 232 233
f 188 233 224
f 188 224 189
f 189 224 190
f 190 224 191
f 191 224 193
f 191 193 192
f 194 225 234
f 194 234 214
f 194 214 195
f 195 214 213
f 195 213 196
f 196 213 212
f 196 212 211
f 196 211 209
f 197 204 235
f 197 235 198
f 197 200 204
f 198 235 201
f 199 204 200
f 201 236 202
f 201 235 237
f 201 237 236
f 202 236 238
f 202 238 239
f 202 239 240
f 202 240 227
f 203 207 236
f 203 236 237
f 203 237 204
f 204 237 235
f 206 241 266
f 206 266 242
f 206 242 243
f 206 243 207
f 206 208 244
f 206 244 245
f 206 245 246
f 206 246 241
f 207 243 238
f 207 238 236
f 210 215 247
f 214 234 215
f 215 234 248
f 215 248 249
f 215 249 250
f 215 250 251
f 215 251 247
f 216 252 253
f 216 253 254
f 216 254 217
f 216 223 252
f 217 254 218
f 218 254 219
f 219 254 248
f 219 248 220
f 220 248 234
f 220 234 225
f 221 224 255
f 221 255 222
f 222 255 256
f 222 256 223
f 223 256 257
f 223 257 258
f 223 258 259
f 223 259 260
f 223 260 252
f 224 233 255
f 227 240 228
f 228 240 261
f 228 261 231
f 229 255 230
f 229 231 262
f 229 262 255
f 230 255 232
f 231 261 263
f 231 263 262
f 232 255 233
f 238 243 242
f 238 242 239
f 239 242 240
f 240 264 265
f 240 265 261
f 240 242 266
f 240 266 267
f 240 267 264
f 241 268 267
f 241 267 266
f 241 246 268
f 246 269 270
f 246 270 268
f 248 254 249
f 249 271 272
f 249 272 273
f 249 273 250
f 249 254 253
f 249 253 252
f 249 252 260
f 249 260 259
f 249 259 258
f 249 258 257
f 249 257 271
f 255 262 274
f 255 274 256
f 256 274 275
f 256 275 276
f 256 276 277
f 256 277 278
f 256 278 257
f 257 278 279
f 257 279 280
f 257 280 281
f 257 281 271
f 261 265 282
f 261 282 263
f 262 263 282
f 262 282 274
f 264 267 268
f 264 268 270
f 264 270 265
f 265 270 283
f 265 283 274
f 265 274 282
f 269 284 270
f 270 275 283
f 270 284 275
f 271 281 272
f 272 281 280
f 272 280 279
f 272 279 278
f 272 278 277
f 272 277 276
f 272 276 275
f 272 275 285
f 274 283 275
f 275 284 286
f 275 286 287
f 275 287 288
f 275 288 289
f 275 289 285

