# https://github.com/mikedh/trimesh
v 0.07011092 0.02607258 0.69836767
v 0.07006974 0.01886948 0.69837694
v 0.07009720 -0.01887273 0.69837694
v 0.07012466 -0.02611670 0.69836767
v 0.06858718 0.02607258 0.69037556
v 0.06271184 0.02607258 0.69837694
v 0.06269812 -0.02611670 0.69837694
v 0.06853227 -0.02611670 0.69027370
v 0.06847736 0.02607258 0.68982918
v -0.06353928 0.02607258 0.69837694
v -0.06267445 -0.02611670 0.69837694
v 0.06788708 -0.02611670 0.68714815
v 0.06791454 0.02371752 0.68710647
v 0.06510042 0.02607258 0.68365218
v -0.07007354 0.02607258 0.69836767
v -0.07008726 0.01886948 0.69837694
v -0.07007354 -0.01887273 0.69837694
v -0.07011472 -0.02611670 0.69836767
v 0.04394645 -0.02611670 0.65107249
v 0.04408373 -0.01132225 0.65107249
v 0.04409745 -0.00931968 0.65107249
v 0.04409745 0.00577618 0.65107249
v 0.04407000 0.01132410 0.65107249
v 0.04387782 0.02607258 0.65107249
v -0.06854979 0.02607258 0.69027832
v -0.06849488 -0.02611670 0.68987548
v -0.04400516 -0.02611670 0.65107249
v -0.04212450 0.02607258 0.65107249
v -0.06790460 0.02607258 0.68714815
v -0.06791833 -0.02372078 0.68710647
v -0.06506303 -0.02611670 0.68359199
v -0.04407380 -0.01132225 0.65107249
v -0.04400516 0.01132410 0.65107249
v -0.04406007 0.00377362 0.65107249
v -0.04407380 0.00177105 0.65107249
v -0.04410125 -0.00377176 0.65107249
f 1 2 3
f 1 3 4
f 1 4 5
f 1 5 9
f 1 9 14
f 1 14 24
f 1 24 28
f 1 28 29
f 1 29 25
f 1 25 15
f 1 15 10
f 1 10 6
f 1 6 2
f 2 6 10
f 2 10 16
f 2 16 17
f 2 17 11
f 2 11 7
f 2 7 3
f 3 7 4
f 4 8 5
f 4 7 11
f 4 11 18
f 4 18 26
f 4 26 31
f 4 31 27
f 4 27 19
f 4 19 12
f 4 12 8
f 5 8 9
f 8 12 13
f 8 13 9
f 9 13 14
f 10 15 16
f 11 17 18
f 12 19 20
f 12 20 21
f 12 21 13
f 13 21 22
f 13 22 23
f 13 23 24
f 13 24 14
f 15 25 16
f 16 25 18
f 16 18 17
f 18 25 26
f 19 27 32
f 19 32 36
f 19 36 35
f 19 35 34
f 19 34 33
f 19 33 28
f 19 28 24
f 19 24 23
f 19 23 22
f 19 22 21
f 19 21 20
f 25 29 26
f 26 29 30
f 26 30 31
f 27 31 30
f 27 30 32
f 28 33 29
f 29 33 34
f 29 34 35
f 29 35 36
f 29 36 30
f 30 36 32

