# https://github.com/mikedh/trimesh
v -0.06174868 0.06946052 0.65107249
v -0.06173659 0.07171430 0.65107249
v -0.06091457 0.07171430 0.64635547
v -0.06024970 0.07171430 0.64258534
v -0.05410875 0.07171430 0.60776805
v -0.05011955 0.04906144 0.58512986
v -0.05011955 -0.04906806 0.58512986
v -0.05410875 -0.07172092 0.60776805
v -0.05543848 -0.07172092 0.61531701
v -0.06173659 -0.07172092 0.65107249
v -0.06107172 0.07780113 0.65107249
v -0.06074533 0.07686342 0.64733709
v -0.05304496 0.07638635 0.60288600
v -0.05314167 0.07171430 0.60231266
v -0.05141302 0.07171430 0.59267882
v -0.05003493 0.07171430 0.58512986
v -0.04407530 0.00377217 0.56232663
v -0.04408739 -0.00376233 0.56232663
v -0.04412365 -0.03396615 0.56232663
v -0.04412365 -0.03411421 0.56232663
v -0.05010746 -0.07172092 0.58512986
v -0.05247680 -0.07172092 0.59853383
v -0.05304496 -0.07644232 0.60287731
v -0.06074533 -0.07691939 0.64733709
v -0.06161570 -0.07353052 0.65107249
v -0.05855731 0.08140387 0.65107249
v -0.05298452 0.08314765 0.61775805
v -0.05396369 0.07984103 0.61527358
v -0.05348015 0.07781757 0.60776805
v -0.04812495 0.07926525 0.58512986
v -0.04650509 0.07926525 0.57977871
v -0.04108944 0.07911719 0.56232663
v -0.04290272 0.07171430 0.56232663
v -0.04350714 0.04906144 0.56232663
v -0.04402695 0.01132312 0.56232663
v -0.04405112 -0.04151710 0.56232663
v -0.04333790 -0.07172092 0.56232663
v -0.04823374 -0.07927186 0.58512986
v -0.05348015 -0.07795580 0.60776805
v -0.06107172 -0.07787354 0.65107249
v -0.05464064 0.08324636 0.65107249
v -0.05312958 0.08322992 0.62287465
v -0.04576769 0.08329572 0.58512986
v -0.04556218 0.08321346 0.58096014
v -0.04104109 0.07926525 0.56232663
v -0.04104109 -0.07927186 0.56232663
v -0.04656553 -0.07927186 0.57969184
v -0.04561054 -0.08323653 0.58092540
v -0.05228339 -0.08285816 0.61230263
v -0.05398787 -0.07991345 0.61502167
v -0.05300869 -0.08317073 0.61734107
v -0.05957275 -0.08034118 0.65107249
v -0.05338344 0.08331217 0.65107249
v -0.04906784 0.08350958 0.63042361
v -0.05328673 0.08326281 0.63042361
v -0.04906784 0.08347667 0.62287465
v -0.04152463 0.08359183 0.58512986
v -0.03396932 0.08377279 0.56232663
v -0.03829700 0.08334506 0.56232663
v -0.03838162 0.08332862 0.56232663
v -0.04099273 -0.07935412 0.56232663
v -0.03833327 -0.08330233 0.56232663
v -0.03396932 -0.08374651 0.56232663
v -0.04582813 -0.08333523 0.58512986
v -0.05317793 -0.08325298 0.62287465
v -0.05761442 -0.08246334 0.65107249
v -0.05875073 -0.08145984 0.65107249
v -0.04906784 0.08349313 0.65107249
v -0.03396932 0.08378924 0.65107249
v -0.03396932 0.08378924 0.61531701
v 0.01131418 0.08401956 0.56232663
v 0.01131418 -0.08404262 0.56232663
v -0.01131548 -0.08396037 0.65107249
v -0.03396932 -0.08374651 0.60022778
v -0.04906784 -0.08354910 0.63042361
v -0.04906784 -0.08351619 0.62287465
v -0.04152463 -0.08359844 0.58512986
v -0.05332299 -0.08328589 0.63042361
v -0.05484615 -0.08326943 0.65107249
v 0.01131418 0.08401956 0.65107249
v 0.04906655 0.08354247 0.63042361
v 0.04906655 0.08352603 0.62287465
v 0.04152333 0.08354247 0.58512986
v 0.03405264 0.08339442 0.56232663
v 0.01131418 -0.08404262 0.56248300
v 0.03396802 -0.08363135 0.56232663
v 0.04152333 -0.08354910 0.58512986
v 0.04906655 -0.08351619 0.63042361
v 0.01131418 -0.08402617 0.65107249
v -0.03396932 -0.08373005 0.65107249
v -0.04906784 -0.08351619 0.65107249
v 0.04906655 0.08352603 0.65107249
v 0.04906655 0.08354247 0.63797257
v 0.05485694 0.08326281 0.65107249
v 0.05332170 0.08327926 0.63042361
v 0.05317664 0.08324636 0.62287465
v 0.04582683 0.08332862 0.58512986
v 0.03822317 0.08324636 0.56232663
v 0.04906655 -0.08351619 0.63797257
v 0.03819899 -0.08328589 0.56232663
v 0.04556088 -0.08322008 0.58096014
v 0.04576639 -0.08330233 0.58512986
v 0.04906655 -0.08348330 0.62287465
v 0.05328543 -0.08326943 0.63042361
v 0.05468770 -0.08325298 0.65107249
v 0.05341841 -0.08331878 0.65107249
v 0.04906655 -0.08349974 0.65107249
v 0.05762521 0.08245672 0.65107249
v 0.05300740 0.08316411 0.61734107
v 0.04560924 0.08322992 0.58092540
v 0.04099143 0.07934750 0.56232663
v 0.03828361 -0.08326943 0.56232663
v 0.05298322 -0.08313782 0.61774068
v 0.03833197 -0.08320362 0.56232663
v 0.04107605 -0.07927186 0.56232663
v 0.04650379 -0.07927186 0.57968315
v 0.04812364 -0.07927186 0.58512986
v 0.05347885 -0.07782419 0.60776805
v 0.05314037 -0.08322008 0.62287465
v 0.05860437 -0.08141048 0.65107249
v 0.05876152 0.08146967 0.65107249
v 0.05958354 0.08033455 0.65107249
v 0.06107042 0.07788338 0.65107249
v 0.05229418 0.08285154 0.61230263
v 0.04823245 0.07926525 0.58512986
v 0.04656423 0.07926525 0.57963104
v 0.04361464 0.07186235 0.56232663
v 0.04103979 0.07926525 0.56232663
v 0.05396239 -0.07984765 0.61526490
v 0.06107042 -0.07780774 0.65107249
v 0.04355419 -0.07172092 0.56232663
v 0.05003363 -0.07172092 0.58512986
v 0.05304366 -0.07637651 0.60288600
v 0.06074404 -0.07687004 0.64733709
v 0.06161441 0.07352389 0.65107249
v 0.06074404 0.07691277 0.64733709
v 0.05347885 0.07794918 0.60776805
v 0.05398656 0.07990684 0.61502167
v 0.05304366 0.07645215 0.60287731
v 0.05010616 0.07171430 0.58512986
v 0.04366299 0.07171430 0.56232663
v 0.06174738 -0.07172092 0.65107249
v 0.04407400 -0.04151710 0.56232663
v 0.05141171 -0.07172092 0.59267882
v 0.04412235 -0.03396615 0.56232663
v 0.05011825 -0.04906806 0.58512986
v 0.05247550 -0.07172092 0.59855120
v 0.05410745 -0.07172092 0.60776805
v 0.06173529 0.07171430 0.65107249
v 0.05543719 0.07171430 0.61531701
v 0.05410745 0.07171430 0.60776805
v 0.05247550 0.07171430 0.59853383
v 0.05011825 0.04906144 0.58512986
v 0.04411027 0.00392023 0.56232663
v 0.04408609 0.01132312 0.56232663
v 0.04412235 -0.03381809 0.56232663
f 1 2 3
f 1 3 4
f 1 4 5
f 1 5 6
f 1 6 7
f 1 7 8
f 1 8 9
f 1 9 10
f 1 10 25
f 1 25 40
f 1 40 52
f 1 52 67
f 1 67 66
f 1 66 79
f 1 79 91
f 1 91 90
f 1 90 73
f 1 73 89
f 1 89 107
f 1 107 106
f 1 106 105
f 1 105 120
f 1 120 130
f 1 130 142
f 1 142 149
f 1 149 135
f 1 135 123
f 1 123 122
f 1 122 121
f 1 121 108
f 1 108 94
f 1 94 92
f 1 92 80
f 1 80 69
f 1 69 68
f 1 68 53
f 1 53 41
f 1 41 26
f 1 26 11
f 1 11 2
f 2 11 12
f 2 12 13
f 2 13 3
f 3 13 4
f 4 13 5
f 5 14 6
f 5 13 14
f 6 14 15
f 6 15 16
f 6 16 17
f 6 17 18
f 6 18 19
f 6 19 20
f 6 20 7
f 7 20 21
f 7 21 22
f 7 22 8
f 8 22 23
f 8 23 9
f 9 23 10
f 10 23 24
f 10 24 25
f 11 26 27
f 11 27 28
f 11 28 29
f 11 29 12
f 12 29 13
f 13 29 30
f 13 30 16
f 13 16 15
f 13 15 14
f 16 30 31
f 16 31 32
f 16 32 33
f 16 33 34
f 16 34 35
f 16 35 17
f 17 35 34
f 17 34 33
f 17 33 32
f 17 32 45
f 17 45 60
f 17 60 59
f 17 59 58
f 17 58 71
f 17 71 84
f 17 84 98
f 17 98 111
f 17 111 128
f 17 128 127
f 17 127 141
f 17 141 155
f 17 155 154
f 17 154 156
f 17 156 145
f 17 145 143
f 17 143 131
f 17 131 115
f 17 115 114
f 17 114 112
f 17 112 100
f 17 100 86
f 17 86 72
f 17 72 63
f 17 63 62
f 17 62 61
f 17 61 46
f 17 46 37
f 17 37 36
f 17 36 20
f 17 20 19
f 17 19 18
f 20 36 21
f 21 37 38
f 21 38 23
f 21 23 22
f 21 36 37
f 23 39 24
f 23 38 39
f 24 39 40
f 24 40 25
f 26 41 42
f 26 42 27
f 27 42 43
f 27 43 44
f 27 44 29
f 27 29 28
f 29 44 30
f 30 44 31
f 31 45 32
f 31 44 45
f 37 46 47
f 37 47 38
f 38 47 48
f 38 48 49
f 38 49 39
f 39 49 50
f 39 50 40
f 40 50 49
f 40 49 51
f 40 51 52
f 41 53 54
f 41 54 55
f 41 55 42
f 42 55 56
f 42 56 57
f 42 57 43
f 43 57 58
f 43 58 44
f 44 58 59
f 44 59 60
f 44 60 45
f 46 61 48
f 46 48 47
f 48 51 49
f 48 61 62
f 48 62 63
f 48 63 64
f 48 64 51
f 51 64 65
f 51 65 66
f 51 66 67
f 51 67 52
f 53 68 54
f 54 56 55
f 54 68 69
f 54 69 70
f 54 70 58
f 54 58 56
f 56 58 57
f 58 70 71
f 63 72 73
f 63 73 74
f 63 74 75
f 63 75 76
f 63 76 77
f 63 77 64
f 64 76 65
f 64 77 76
f 65 76 78
f 65 78 79
f 65 79 66
f 69 80 71
f 69 71 70
f 71 81 82
f 71 82 83
f 71 83 84
f 71 80 93
f 71 93 81
f 72 85 73
f 72 86 87
f 72 87 88
f 72 88 99
f 72 99 85
f 73 85 89
f 73 90 74
f 74 90 75
f 75 90 91
f 75 91 79
f 75 79 78
f 75 78 76
f 80 92 93
f 81 94 82
f 81 93 94
f 82 94 95
f 82 95 96
f 82 96 97
f 82 97 83
f 83 97 98
f 83 98 84
f 85 99 89
f 86 100 101
f 86 101 102
f 86 102 87
f 87 102 103
f 87 103 88
f 88 103 104
f 88 104 105
f 88 105 106
f 88 106 99
f 89 99 107
f 92 94 93
f 94 108 96
f 94 96 95
f 96 108 109
f 96 109 97
f 97 109 110
f 97 110 98
f 98 110 111
f 99 106 107
f 100 112 101
f 101 113 102
f 101 112 114
f 101 114 115
f 101 115 116
f 101 116 117
f 101 117 118
f 101 118 113
f 102 113 119
f 102 119 103
f 103 119 104
f 104 119 105
f 105 119 120
f 108 121 109
f 109 121 122
f 109 122 123
f 109 123 124
f 109 124 110
f 110 124 125
f 110 125 126
f 110 126 127
f 110 127 128
f 110 128 111
f 113 120 119
f 113 118 129
f 113 129 130
f 113 130 120
f 115 131 116
f 116 131 117
f 117 131 132
f 117 132 133
f 117 133 118
f 118 133 134
f 118 134 130
f 118 130 129
f 123 135 136
f 123 136 137
f 123 137 138
f 123 138 124
f 124 138 137
f 124 137 125
f 125 137 139
f 125 139 140
f 125 140 141
f 125 141 126
f 126 141 127
f 130 134 142
f 131 143 132
f 132 144 133
f 132 143 145
f 132 145 146
f 132 146 144
f 133 144 147
f 133 147 148
f 133 148 142
f 133 142 134
f 135 149 136
f 136 149 139
f 136 139 137
f 139 149 150
f 139 150 151
f 139 151 152
f 139 152 140
f 140 152 153
f 140 153 154
f 140 154 155
f 140 155 141
f 142 148 146
f 142 146 153
f 142 153 151
f 142 151 150
f 142 150 149
f 144 146 147
f 145 156 153
f 145 153 146
f 146 148 147
f 151 153 152
f 153 156 154

