# https://github.com/mikedh/trimesh
v 0.01132448 -0.08405798 0.03657583
v -0.03396857 -0.08379467 0.03657583
v 0.03397101 -0.08338327 0.03657583
v 0.03397101 -0.08363011 0.56232664
v 0.01132448 -0.08404152 0.56232664
v -0.03837518 -0.08333390 0.19256162
v -0.03686311 -0.08349846 0.03657583
v -0.03396857 -0.08376177 0.47185386
v -0.03834926 -0.08331744 0.45672360
v 0.03543124 -0.08333390 0.03657583
v 0.03828257 -0.08328454 0.55491591
v 0.03828257 -0.08328454 0.56232664
v 0.03820481 -0.08323517 0.03657583
v 0.03822209 -0.08325163 0.10193444
v -0.03396857 -0.08374531 0.56232664
v -0.03838382 -0.08333390 0.13214350
v -0.03838382 -0.08333390 0.03657583
v -0.03833198 -0.08330100 0.56232664
v -0.03834062 -0.08330100 0.53227198
v -0.04099323 -0.07935153 0.56232664
v 0.03825665 -0.08326808 0.35106910
v 0.04103023 -0.07926924 0.04156780
v 0.04104751 -0.07926924 0.15478743
v 0.04105615 -0.07926924 0.21520554
v 0.04106479 -0.07926924 0.32837371
v 0.04107343 -0.07926924 0.44164481
v 0.04107343 -0.07926924 0.56232664
v 0.04005386 -0.08063511 0.03657583
v 0.03821345 -0.08323517 0.04156780
v -0.03929971 -0.08193513 0.03657583
v -0.04104507 -0.07926924 0.56232664
v -0.04104507 -0.07926924 0.03657583
v 0.04102158 -0.07926924 0.03657583
v 0.04274103 -0.07431596 0.03657583
v 0.04364827 -0.07171589 0.07172538
v 0.04365691 -0.07171589 0.10949956
v 0.04367419 -0.07171589 0.19256162
v 0.04368283 -0.07171589 0.25292827
v 0.04369147 -0.07171589 0.32837371
v 0.04112527 -0.07912114 0.56232664
v -0.04330022 -0.07186400 0.56232664
v -0.04344710 -0.07171589 0.55491591
v -0.04322245 -0.07171589 0.23028434
v -0.04319653 -0.07171589 0.20007528
v -0.04318789 -0.07171589 0.19256162
v -0.04288548 -0.07171589 0.03657583
v -0.04333478 -0.07171589 0.37371303
v -0.04330022 -0.07171589 0.32837371
v -0.04328294 -0.07171589 0.30572979
v 0.04363963 -0.07171589 0.03657583
v 0.04406301 -0.04151893 0.03657583
v 0.04408029 -0.04151893 0.53978564
v 0.04369147 -0.07171589 0.50957660
v 0.04368283 -0.07171589 0.55491591
v 0.04356187 -0.07171589 0.56232664
v -0.04334342 -0.07171589 0.56232664
v -0.04405194 -0.04151893 0.56232664
v -0.04412106 -0.04907229 0.16235257
v -0.04412970 -0.04907229 0.12457837
v -0.04412970 -0.04907229 0.03657583
v 0.04410621 -0.03656564 0.03657583
v 0.04413213 -0.03396558 0.56232664
v 0.04408029 -0.04151893 0.56232664
v -0.04412106 -0.03411368 0.56232664
v -0.04412970 -0.03396558 0.52470685
v -0.04413834 -0.03396558 0.12457837
v -0.04412970 -0.03396558 0.03657583
v 0.04412349 -0.03396558 0.03657583
v 0.04411485 -0.00362051 0.56232664
v 0.04411485 -0.00376861 0.03657583
v -0.04412106 -0.03396558 0.56232664
v -0.04409514 -0.00376861 0.56232664
v -0.04406922 0.03396524 0.03657583
v -0.04409514 0.00636835 0.03657583
v 0.04410621 0.00391639 0.56232664
v 0.04408029 0.00376828 0.03657583
v 0.04408893 0.00376828 0.07929054
v 0.04409757 0.00376828 0.17743136
v 0.04410621 0.00376828 0.41143575
v -0.04407786 0.00376828 0.56232664
v -0.04408650 0.00376828 0.50957660
v -0.04405194 0.03656531 0.03657583
v -0.04405194 0.01132164 0.54735077
v 0.04408029 0.01146974 0.56232664
v 0.04367419 0.07171556 0.03657583
v 0.04407165 0.01132164 0.26805853
v 0.04408029 0.01132164 0.41900088
v -0.04403465 0.01132164 0.56232664
v -0.04404329 0.01132164 0.55491591
v -0.04400873 0.04151860 0.03657583
v -0.04351623 0.04907195 0.56232664
v -0.04361127 0.07171556 0.04156780
v 0.04369147 0.07171556 0.38879182
v 0.04367419 0.07171556 0.52470685
v 0.04366555 0.07171556 0.56232664
v 0.04369147 0.07171556 0.23784947
v 0.04202387 0.07666885 0.03657583
v 0.04368283 0.07171556 0.12457837
v -0.04361127 0.07171556 0.03657583
v -0.04290276 0.07171556 0.56232664
v -0.04318789 0.07171556 0.53978564
v -0.04319653 0.07171556 0.53227198
v -0.04275587 0.07431562 0.03657583
v -0.04108827 0.07912081 0.56232664
v -0.04104507 0.07926892 0.56232664
v 0.04115119 0.07926892 0.03657583
v 0.04104751 0.07926892 0.55491591
v 0.04103887 0.07926892 0.56232664
v -0.04112283 0.07926892 0.03657583
v -0.04112283 0.07926892 0.04908148
v -0.03838382 0.08333358 0.56232664
v 0.03931942 0.08193481 0.03657583
v 0.04098702 0.07935119 0.56232664
v 0.03836034 0.08331712 0.03657583
v -0.04016375 0.08065123 0.03657583
v -0.03838382 0.08333358 0.55491591
v -0.03834926 0.08331712 0.26049339
v -0.03396857 0.08377789 0.56232664
v 0.03823073 0.08325129 0.56232664
v 0.03397101 0.08376143 0.03657583
v 0.03834306 0.08331712 0.04908148
v -0.03832334 0.08330066 0.04908148
v -0.03831470 0.08330066 0.03657583
v -0.03396857 0.08377789 0.46428874
v -0.03837518 0.08333358 0.50206292
v -0.03396857 0.08376143 0.24541459
v 0.01132448 0.08400827 0.56232664
v -0.01132205 0.08402473 0.03657583
v 0.03397101 0.08339940 0.56232664
v 0.01132448 0.08405764 0.03657583
v 0.01146273 0.08400827 0.56232664
v -0.03396857 0.08372852 0.03657583
v -0.03396857 0.08374498 0.12457837
f 1 2 7
f 1 7 17
f 1 17 30
f 1 30 32
f 1 32 46
f 1 46 60
f 1 60 67
f 1 67 74
f 1 74 73
f 1 73 82
f 1 82 90
f 1 90 99
f 1 99 103
f 1 103 109
f 1 109 115
f 1 115 123
f 1 123 132
f 1 132 128
f 1 128 130
f 1 130 120
f 1 120 114
f 1 114 112
f 1 112 106
f 1 106 97
f 1 97 85
f 1 85 76
f 1 76 70
f 1 70 68
f 1 68 61
f 1 61 51
f 1 51 50
f 1 50 34
f 1 34 33
f 1 33 28
f 1 28 13
f 1 13 10
f 1 10 3
f 1 3 4
f 1 4 5
f 1 5 2
f 2 6 7
f 2 5 8
f 2 8 9
f 2 9 6
f 3 10 4
f 4 11 12
f 4 12 27
f 4 27 40
f 4 40 55
f 4 55 63
f 4 63 62
f 4 62 69
f 4 69 75
f 4 75 84
f 4 84 95
f 4 95 108
f 4 108 113
f 4 113 119
f 4 119 129
f 4 129 131
f 4 131 127
f 4 127 118
f 4 118 111
f 4 111 105
f 4 105 104
f 4 104 100
f 4 100 91
f 4 91 88
f 4 88 80
f 4 80 72
f 4 72 71
f 4 71 64
f 4 64 57
f 4 57 56
f 4 56 41
f 4 41 31
f 4 31 20
f 4 20 18
f 4 18 15
f 4 15 5
f 4 10 13
f 4 13 14
f 4 14 11
f 5 15 8
f 6 16 7
f 6 9 16
f 7 16 17
f 8 15 18
f 8 18 9
f 9 18 19
f 9 19 20
f 9 20 16
f 11 21 22
f 11 22 23
f 11 23 24
f 11 24 25
f 11 25 26
f 11 26 27
f 11 27 12
f 11 14 21
f 13 28 29
f 13 29 14
f 14 29 22
f 14 22 21
f 16 20 17
f 17 20 30
f 18 20 19
f 20 31 32
f 20 32 30
f 22 29 28
f 22 28 33
f 22 33 34
f 22 34 35
f 22 35 36
f 22 36 37
f 22 37 23
f 23 37 38
f 23 38 24
f 24 38 39
f 24 39 25
f 25 39 26
f 26 40 27
f 26 39 40
f 31 41 42
f 31 42 32
f 32 43 44
f 32 44 45
f 32 45 46
f 32 42 47
f 32 47 48
f 32 48 49
f 32 49 43
f 34 50 35
f 35 50 51
f 35 51 36
f 36 51 37
f 37 51 38
f 38 51 39
f 39 52 63
f 39 63 53
f 39 53 40
f 39 51 52
f 40 53 54
f 40 54 55
f 41 56 42
f 42 56 57
f 42 57 58
f 42 58 59
f 42 59 60
f 42 60 47
f 43 60 44
f 43 49 60
f 44 60 45
f 45 60 46
f 47 60 48
f 48 60 49
f 51 61 52
f 52 62 63
f 52 61 62
f 53 63 54
f 54 63 55
f 57 64 58
f 58 64 59
f 59 64 65
f 59 65 66
f 59 66 60
f 60 66 67
f 61 68 62
f 62 68 70
f 62 70 69
f 64 71 65
f 65 71 72
f 65 72 73
f 65 73 66
f 66 73 74
f 66 74 67
f 69 70 75
f 70 76 77
f 70 77 78
f 70 78 79
f 70 79 75
f 72 80 81
f 72 81 73
f 73 81 80
f 73 80 83
f 73 83 82
f 75 79 84
f 76 85 77
f 77 85 86
f 77 86 78
f 78 86 87
f 78 87 79
f 79 87 84
f 80 88 89
f 80 89 83
f 82 83 90
f 83 89 91
f 83 91 92
f 83 92 90
f 84 93 94
f 84 94 95
f 84 87 96
f 84 96 93
f 85 97 98
f 85 98 86
f 86 98 96
f 86 96 87
f 88 91 89
f 90 92 99
f 91 100 101
f 91 101 102
f 91 102 92
f 92 103 99
f 92 102 104
f 92 104 105
f 92 105 103
f 93 96 106
f 93 106 94
f 94 107 95
f 94 106 107
f 95 107 108
f 96 98 97
f 96 97 106
f 100 104 101
f 101 104 102
f 103 105 110
f 103 110 109
f 105 111 110
f 106 112 107
f 107 113 108
f 107 112 114
f 107 114 113
f 109 110 111
f 109 111 116
f 109 116 117
f 109 117 115
f 111 118 124
f 111 124 116
f 113 114 119
f 114 120 121
f 114 121 119
f 115 122 123
f 115 117 122
f 116 124 125
f 116 125 117
f 117 126 123
f 117 123 122
f 117 125 126
f 118 127 128
f 118 128 124
f 119 121 120
f 119 120 129
f 120 130 131
f 120 131 129
f 123 126 133
f 123 133 132
f 124 128 126
f 124 126 125
f 126 128 133
f 127 130 128
f 127 131 130
f 128 132 133

