# https://github.com/mikedh/trimesh
v 0.07011810 -0.02612237 0.69837231
v 0.07006317 -0.02612237 0.69808522
v 0.06270400 -0.02612237 0.69837694
v 0.07011810 -0.02642856 0.69837694
v 0.07013182 -0.04152785 0.69837694
v 0.06209989 -0.05662146 0.65307746
v 0.06172919 -0.05662146 0.65107249
v 0.06170172 -0.05427407 0.65107249
v 0.06163307 -0.04908033 0.65107249
v 0.06855290 -0.02612237 0.69027832
v -0.06267657 -0.02612237 0.69837694
v 0.07010436 -0.07172643 0.69837694
v 0.07010436 -0.07172076 0.69837231
v 0.06209989 -0.07172076 0.65307746
v 0.06174291 -0.06417395 0.65107249
v 0.06149577 -0.04752107 0.65107249
v 0.06790759 -0.02612237 0.68715278
v -0.07010439 -0.02612237 0.69837231
v -0.07010439 -0.02642856 0.69837694
v 0.06901971 -0.07868922 0.69837694
v 0.06901971 -0.07868922 0.69837231
v 0.06834695 -0.07696554 0.69082472
v 0.06798998 -0.07571246 0.68677772
v 0.06174291 -0.07172076 0.65107249
v 0.06096031 -0.04435152 0.65107249
v 0.04394909 -0.02612237 0.65107249
v -0.07013184 -0.03397537 0.69837694
v -0.06858038 -0.02612237 0.69032462
v -0.06167430 -0.04908033 0.65107249
v -0.06172921 -0.05662146 0.65107249
v 0.06668564 -0.08246546 0.69837694
v 0.06668564 -0.08246546 0.69837231
v 0.06054841 -0.08315153 0.66254206
v 0.05987566 -0.08293608 0.65750878
v 0.06124864 -0.07833201 0.65307746
v 0.06107015 -0.07782171 0.65107249
v -0.04400403 -0.02612237 0.65107249
v -0.07010439 -0.07172076 0.69837231
v -0.07010439 -0.07172076 0.69837694
v -0.06208618 -0.05662146 0.65307746
v -0.06343171 -0.07172076 0.66062507
v -0.06848427 -0.02612237 0.68988010
v -0.06101526 -0.04423812 0.65107249
v -0.06172921 -0.07172076 0.65107249
v 0.06290995 -0.08321958 0.69837694
v 0.06290995 -0.08321958 0.69837231
v 0.06068571 -0.08321391 0.66817729
v 0.05662169 -0.08342370 0.66817729
v 0.05340892 -0.08332731 0.65107249
v 0.05468580 -0.08326494 0.65107249
v 0.05876354 -0.08210825 0.65307746
v 0.05859879 -0.08141084 0.65107249
v -0.06505183 -0.02612237 0.68359199
v -0.06834697 -0.07697121 0.69082472
v -0.06901973 -0.07868922 0.69837231
v -0.06799000 -0.07571246 0.68677772
v -0.06901973 -0.07868922 0.69837694
v -0.06510674 -0.02612237 0.68367997
v -0.06161937 -0.07353516 0.65107249
v 0.05662169 -0.08341803 0.69837694
v 0.05662169 -0.08343504 0.67572490
v 0.01131334 -0.08403606 0.65107249
v 0.04907031 -0.08350307 0.65107249
v -0.06107018 -0.07788408 0.65107249
v -0.06124867 -0.07840005 0.65307746
v -0.06665821 -0.08246546 0.69837231
v -0.06006790 -0.08297577 0.65727264
v -0.06665821 -0.08246546 0.69837694
v 0.03396752 -0.08376390 0.69837694
v 0.03396752 -0.08376390 0.69837231
v 0.03396752 -0.08375823 0.69082472
v 0.01131334 -0.08403606 0.69837694
v -0.01131337 -0.08402472 0.69837231
v -0.01131337 -0.08400771 0.68327248
v -0.01131337 -0.08396802 0.65307746
v -0.01131337 -0.08396235 0.65107249
v -0.05957364 -0.08033920 0.65107249
v -0.06056217 -0.08315720 0.66230590
v -0.06068575 -0.08322525 0.66817729
v -0.06288252 -0.08321391 0.69837231
v -0.05874984 -0.08146754 0.65107249
v -0.05894206 -0.08217630 0.65307746
v -0.05761027 -0.08246546 0.65107249
v -0.05483684 -0.08327061 0.65107249
v -0.06288252 -0.08321391 0.69837694
v -0.01131337 -0.08402472 0.69837694
v -0.03396755 -0.08373555 0.65107249
v -0.05662173 -0.08343504 0.66817729
v -0.05662173 -0.08344071 0.67572490
v -0.04907033 -0.08352009 0.65107249
v -0.05662173 -0.08341236 0.69837694
v -0.03396755 -0.08372988 0.69837694
v -0.03396755 -0.08373555 0.69082472
f 1 2 10
f 1 10 17
f 1 17 26
f 1 26 37
f 1 37 53
f 1 53 58
f 1 58 42
f 1 42 28
f 1 28 18
f 1 18 11
f 1 11 3
f 1 3 4
f 1 4 5
f 1 5 6
f 1 6 7
f 1 7 8
f 1 8 9
f 1 9 2
f 2 9 10
f 3 11 19
f 3 19 27
f 3 27 39
f 3 39 57
f 3 57 68
f 3 68 85
f 3 85 91
f 3 91 92
f 3 92 86
f 3 86 72
f 3 72 69
f 3 69 60
f 3 60 45
f 3 45 31
f 3 31 20
f 3 20 12
f 3 12 5
f 3 5 4
f 5 12 13
f 5 13 14
f 5 14 6
f 6 14 24
f 6 24 15
f 6 15 7
f 7 15 24
f 7 24 36
f 7 36 52
f 7 52 50
f 7 50 49
f 7 49 63
f 7 63 62
f 7 62 76
f 7 76 87
f 7 87 90
f 7 90 84
f 7 84 83
f 7 83 81
f 7 81 77
f 7 77 64
f 7 64 59
f 7 59 44
f 7 44 30
f 7 30 29
f 7 29 43
f 7 43 37
f 7 37 26
f 7 26 25
f 7 25 16
f 7 16 9
f 7 9 8
f 9 16 17
f 9 17 10
f 11 18 19
f 12 20 21
f 12 21 22
f 12 22 23
f 12 23 13
f 13 23 14
f 14 23 24
f 16 25 17
f 17 25 26
f 18 27 19
f 18 28 29
f 18 29 30
f 18 30 27
f 20 31 32
f 20 32 21
f 21 32 33
f 21 33 34
f 21 34 35
f 21 35 22
f 22 35 36
f 22 36 23
f 23 36 24
f 27 38 39
f 27 30 40
f 27 40 41
f 27 41 38
f 28 42 29
f 29 42 43
f 30 44 41
f 30 41 40
f 31 45 46
f 31 46 32
f 32 46 47
f 32 47 33
f 33 47 48
f 33 48 49
f 33 49 50
f 33 50 34
f 34 51 52
f 34 52 36
f 34 36 35
f 34 50 51
f 37 43 53
f 38 54 55
f 38 55 57
f 38 57 39
f 38 41 56
f 38 56 54
f 41 44 56
f 42 58 43
f 43 58 53
f 44 59 56
f 45 60 61
f 45 61 46
f 46 61 48
f 46 48 47
f 48 61 62
f 48 62 63
f 48 63 49
f 50 52 51
f 54 56 64
f 54 64 65
f 54 65 55
f 55 66 68
f 55 68 57
f 55 65 67
f 55 67 66
f 56 59 64
f 60 69 61
f 61 69 70
f 61 70 71
f 61 71 62
f 62 71 70
f 62 70 69
f 62 69 72
f 62 72 86
f 62 86 73
f 62 73 74
f 62 74 75
f 62 75 76
f 64 77 67
f 64 67 65
f 66 67 78
f 66 78 79
f 66 79 80
f 66 80 85
f 66 85 68
f 67 77 81
f 67 81 82
f 67 82 83
f 67 83 84
f 67 84 78
f 73 86 93
f 73 93 87
f 73 87 74
f 74 87 75
f 75 87 76
f 78 88 79
f 78 84 88
f 79 88 80
f 80 88 89
f 80 89 85
f 81 83 82
f 84 90 88
f 85 89 91
f 86 92 93
f 87 93 89
f 87 89 88
f 87 88 90
f 89 93 92
f 89 92 91

