# https://github.com/mikedh/trimesh
v 0.01131717 0.08401956 0.70593225
v 0.07170833 0.08395375 0.74367308
v 0.01131717 0.08400310 0.69837694
v -0.07172481 0.08393730 0.74367308
v 0.00375592 0.08395375 0.74367308
v 0.07170833 0.08354248 0.75122242
v 0.07620555 0.08314766 0.75515476
v 0.07719395 0.08329572 0.75122242
v 0.07828118 0.08349313 0.74367308
v 0.07640323 0.08318057 0.71693800
v 0.06289511 0.08321347 0.69837694
v 0.05660230 0.08341088 0.69837694
v -0.03396797 0.08378924 0.69837694
v -0.07172481 0.08354248 0.75122242
v -0.07172481 0.08372344 0.72102501
v -0.07781993 0.08339443 0.72102501
v -0.07828118 0.08349313 0.74367308
v -0.07716100 0.08329572 0.75122242
v 0.07170833 0.08319702 0.75523207
v 0.07170833 0.07926529 0.75716552
v 0.07894012 0.07938045 0.75614227
v 0.08338791 0.07694574 0.75547598
v 0.08096633 0.08170000 0.75122242
v 0.08207005 0.08193031 0.74367308
v 0.06666750 0.08245673 0.69837694
v 0.06787005 0.08303251 0.70224977
v 0.08043919 0.08153549 0.72102501
v 0.08340439 0.07704444 0.71645018
v -0.05660230 0.08339443 0.69837694
v -0.07618908 0.08313122 0.75514882
v -0.07172481 0.08318057 0.75522019
v -0.02640672 0.08319702 0.75522613
v 0.02640672 0.08319702 0.75523207
v -0.06281274 0.08321347 0.69837694
v -0.08160879 0.08199611 0.72102501
v -0.08205358 0.08217707 0.74367308
v -0.07676564 0.08322992 0.71684282
v -0.08093339 0.08171645 0.75122242
v 0.06414708 0.07926529 0.75718932
v 0.07170833 0.07169795 0.75871226
v 0.05661878 0.07169795 0.75899784
v 0.06414708 0.07169795 0.75889673
v 0.07925311 0.07169795 0.75747490
v 0.08353617 0.07169795 0.75566638
v 0.08403037 0.07169795 0.75122242
v 0.08356912 0.07791633 0.75122242
v 0.08358559 0.07775182 0.72102501
v 0.06900671 0.07868952 0.69837694
v 0.08406332 0.07171440 0.72102501
v 0.08358559 0.07171440 0.71599211
v 0.07009395 0.07171440 0.69837694
v -0.07172481 0.07926529 0.75715364
v -0.08338791 0.07696218 0.75550573
v -0.07892364 0.07939690 0.75616608
v 0.01130069 0.07926529 0.75718338
v 0.04151275 0.07926529 0.75718932
v -0.06656866 0.08244029 0.69837694
v -0.06780416 0.08303251 0.70232117
v -0.08340439 0.07717604 0.71646208
v -0.08358559 0.07822889 0.72102501
v -0.08350323 0.07839340 0.74367308
v -0.08356912 0.07793278 0.75122242
v 0.04905753 0.07169795 0.75902165
v 0.07170833 0.04906172 0.75896216
v 0.07925311 0.04906172 0.75775450
v 0.04905753 0.04906172 0.75913465
v 0.07170833 0.00375637 0.75915251
v 0.08358559 0.04906172 0.75577344
v 0.08411274 -0.07170320 0.75122242
v 0.08414568 -0.07171965 0.72102501
v 0.08358559 0.04906172 0.71589691
v 0.07012689 0.04906172 0.69837694
v -0.07172481 0.07169795 0.75897404
v -0.05661878 0.07169795 0.75899784
v -0.04905753 0.07169795 0.75900378
v -0.03395150 0.07169795 0.75900972
v -0.07925311 0.07169795 0.75776638
v -0.08411274 0.07169795 0.75122242
v -0.08356912 0.07169795 0.75577938
v 0.03396797 0.07169795 0.75902165
v -0.06900671 0.07867306 0.69837694
v -0.08358559 0.07171440 0.71600399
v -0.08414568 0.07171440 0.72102501
v -0.07009395 0.07171440 0.69837694
v 0.04151275 0.04906172 0.75915251
v 0.07925311 0.00375637 0.75789130
v 0.04905753 0.04151083 0.75915251
v 0.07170833 -0.04905052 0.75915251
v 0.08358559 0.01132371 0.75580913
v 0.08358559 0.00375637 0.75581511
v 0.08358559 -0.04905052 0.75581511
v 0.08358559 -0.07170320 0.75577938
v 0.08338791 -0.07696744 0.75550573
v 0.08356912 -0.07793803 0.75122242
v 0.08358559 -0.07823415 0.72102501
v 0.08340439 -0.07718130 0.71646208
v 0.08358559 -0.07171965 0.71600399
v 0.08358559 -0.04906697 0.71589691
v 0.07012689 -0.04906697 0.69837694
v -0.07172481 0.04906172 0.75915251
v -0.07925311 0.04906172 0.75789130
v -0.08406332 -0.07171965 0.72102501
v -0.08401390 -0.07170320 0.75122242
v -0.08358559 -0.04905052 0.75581511
v -0.08358559 0.04906172 0.75581511
v -0.08358559 0.00377282 0.71589691
v -0.08358559 -0.04906697 0.71589691
v -0.08358559 -0.07171965 0.71599211
v -0.07011042 0.04906172 0.69837694
v 0.07925311 -0.04905052 0.75789130
v 0.03396797 -0.07170320 0.75900378
v 0.04905753 -0.07170320 0.75899784
v 0.05661878 -0.07170320 0.75899190
v 0.06414708 -0.07170320 0.75897998
v 0.07170833 -0.07170320 0.75896216
v 0.07925311 -0.07170320 0.75776044
v -0.07172481 -0.04905052 0.75915251
v -0.03395150 -0.07170320 0.75901566
v 0.07892364 -0.07940215 0.75616014
v 0.07618908 -0.08312002 0.75514882
v 0.08094986 -0.08170525 0.75122242
v 0.08205358 -0.08216587 0.74367308
v 0.08350323 -0.07839865 0.74367308
v 0.08160879 -0.08200136 0.72102501
v 0.06666750 -0.08246199 0.69837694
v 0.06900671 -0.07867832 0.69837694
v 0.07009395 -0.07171965 0.69837694
v -0.07925311 -0.04905052 0.75789130
v -0.08358559 -0.07775707 0.72102501
v -0.08356912 -0.07792158 0.75122242
v -0.08340439 -0.07703324 0.71645018
v -0.08338791 -0.07695098 0.75547598
v -0.08353617 -0.07170320 0.75566638
v -0.07012689 -0.03396519 0.69837694
v -0.07012689 -0.04906697 0.69837694
v -0.07009395 -0.07171965 0.69837694
v 0.06414708 -0.07927054 0.75715364
v -0.04151275 -0.07927054 0.75718932
v 0.07170833 -0.07927054 0.75714770
v -0.07925311 -0.07170320 0.75746892
v -0.07172481 -0.07170320 0.75870632
v -0.06416355 -0.07170320 0.75889074
v -0.05661878 -0.07170320 0.75899190
v -0.04905753 -0.07170320 0.75901566
v 0.07170833 -0.08318582 0.75522613
v 0.07170833 -0.08353129 0.75122242
v 0.07717747 -0.08328452 0.75122242
v 0.07828118 -0.08348193 0.74367308
v 0.07783641 -0.08339968 0.72102501
v 0.07676564 -0.08323517 0.71684282
v 0.06790300 -0.08303776 0.70220815
v 0.06291158 -0.08321872 0.69837694
v -0.08043919 -0.08152429 0.72102501
v -0.08205358 -0.08191911 0.74367308
v -0.08096633 -0.08168880 0.75122242
v -0.06900671 -0.07867832 0.69837694
v -0.06663455 -0.08246199 0.69837694
v -0.07640323 -0.08316937 0.71694396
v -0.07620555 -0.08313646 0.75515476
v -0.07894012 -0.07938570 0.75613633
v -0.06416355 -0.07927054 0.75718932
v -0.01884547 -0.08318582 0.75523207
v -0.07172481 -0.07927054 0.75715958
v 0.07170833 -0.08392610 0.74367308
v -0.07172481 -0.08353129 0.75122242
v -0.00377239 -0.08394255 0.74367308
v 0.07172481 -0.08372870 0.72102501
v 0.05660230 -0.08341613 0.69837694
v -0.07828118 -0.08348193 0.74367308
v -0.07717747 -0.08328452 0.75122242
v -0.06785358 -0.08303776 0.70225574
v -0.06287864 -0.08320227 0.69837694
v -0.07172481 -0.08394255 0.74367308
v -0.07172481 -0.08318582 0.75523207
v 0.01131717 -0.08402481 0.70593225
v 0.01131717 -0.08404126 0.69837694
v 0.03396797 -0.08376160 0.69837694
v -0.05660230 -0.08339968 0.69837694
v -0.03396797 -0.08372870 0.69837694
v -0.01131717 -0.08402481 0.69837694
v -0.01131717 -0.08402481 0.70593225
f 1 2 3
f 1 3 4
f 1 4 5
f 1 5 2
f 2 6 7
f 2 7 8
f 2 8 9
f 2 9 10
f 2 10 11
f 2 11 12
f 2 12 3
f 2 5 14
f 2 14 6
f 3 12 11
f 3 11 25
f 3 25 48
f 3 48 51
f 3 51 72
f 3 72 99
f 3 99 127
f 3 127 126
f 3 126 125
f 3 125 152
f 3 152 168
f 3 168 177
f 3 177 176
f 3 176 180
f 3 180 179
f 3 179 178
f 3 178 172
f 3 172 157
f 3 157 156
f 3 156 136
f 3 136 135
f 3 135 134
f 3 134 109
f 3 109 84
f 3 84 81
f 3 81 57
f 3 57 34
f 3 34 29
f 3 29 13
f 3 13 4
f 4 14 5
f 4 13 15
f 4 15 16
f 4 16 17
f 4 17 18
f 4 18 14
f 6 19 7
f 6 14 33
f 6 33 19
f 7 19 20
f 7 20 21
f 7 21 22
f 7 22 23
f 7 23 8
f 8 23 24
f 8 24 9
f 9 24 10
f 10 25 26
f 10 26 11
f 10 24 27
f 10 27 28
f 10 28 25
f 11 26 25
f 13 29 15
f 14 18 30
f 14 30 31
f 14 31 32
f 14 32 33
f 15 29 34
f 15 34 16
f 16 35 36
f 16 36 17
f 16 34 37
f 16 37 35
f 17 36 18
f 18 36 38
f 18 38 30
f 19 33 56
f 19 56 39
f 19 39 20
f 20 40 21
f 20 39 63
f 20 63 41
f 20 41 42
f 20 42 40
f 21 43 22
f 21 40 43
f 22 43 44
f 22 44 45
f 22 45 46
f 22 46 23
f 23 46 24
f 24 46 47
f 24 47 27
f 25 28 48
f 27 47 28
f 28 47 49
f 28 49 50
f 28 50 51
f 28 51 48
f 30 52 31
f 30 38 53
f 30 53 54
f 30 54 52
f 31 52 55
f 31 55 32
f 32 55 56
f 32 56 33
f 34 57 58
f 34 58 37
f 35 59 60
f 35 60 36
f 35 37 57
f 35 57 59
f 36 60 61
f 36 61 62
f 36 62 38
f 37 58 57
f 38 62 53
f 39 56 80
f 39 80 63
f 40 42 64
f 40 64 65
f 40 65 43
f 41 63 66
f 41 66 67
f 41 67 64
f 41 64 42
f 43 65 44
f 44 68 45
f 44 65 68
f 45 69 49
f 45 49 46
f 45 68 69
f 46 49 47
f 49 69 70
f 49 70 50
f 50 70 71
f 50 71 51
f 51 71 72
f 52 54 73
f 52 73 74
f 52 74 75
f 52 75 76
f 52 76 55
f 53 77 54
f 53 62 78
f 53 78 79
f 53 79 77
f 54 77 73
f 55 76 56
f 56 76 80
f 57 81 59
f 59 82 83
f 59 83 60
f 59 81 84
f 59 84 82
f 60 83 78
f 60 78 62
f 60 62 61
f 63 80 100
f 63 100 85
f 63 85 66
f 64 67 65
f 65 86 68
f 65 67 86
f 66 85 87
f 66 87 67
f 67 87 85
f 67 85 100
f 67 100 117
f 67 117 88
f 67 88 110
f 67 110 86
f 68 86 89
f 68 89 69
f 69 89 90
f 69 90 91
f 69 91 92
f 69 92 93
f 69 93 94
f 69 94 95
f 69 95 70
f 70 95 96
f 70 96 97
f 70 97 98
f 70 98 71
f 71 98 99
f 71 99 72
f 73 100 74
f 73 77 100
f 74 100 75
f 75 100 76
f 76 100 80
f 77 79 101
f 77 101 100
f 78 83 102
f 78 102 103
f 78 103 104
f 78 104 105
f 78 105 79
f 79 105 101
f 82 106 83
f 82 84 106
f 83 106 107
f 83 107 108
f 83 108 102
f 84 109 106
f 86 110 91
f 86 91 90
f 86 90 89
f 88 111 112
f 88 112 113
f 88 113 114
f 88 114 115
f 88 115 116
f 88 116 110
f 88 117 144
f 88 144 118
f 88 118 111
f 91 110 92
f 92 110 116
f 92 116 93
f 93 116 119
f 93 119 120
f 93 120 121
f 93 121 94
f 94 121 122
f 94 122 123
f 94 123 95
f 95 123 122
f 95 122 124
f 95 124 96
f 96 124 125
f 96 125 126
f 96 126 127
f 96 127 97
f 97 127 98
f 98 127 99
f 100 101 128
f 100 128 117
f 101 105 104
f 101 104 128
f 102 129 130
f 102 130 103
f 102 108 131
f 102 131 129
f 103 130 132
f 103 132 133
f 103 133 104
f 104 133 128
f 106 109 134
f 106 134 135
f 106 135 107
f 107 135 136
f 107 136 108
f 108 136 131
f 111 137 112
f 111 118 138
f 111 138 137
f 112 137 139
f 112 139 113
f 113 139 114
f 114 139 115
f 115 139 119
f 115 119 116
f 117 128 140
f 117 140 141
f 117 141 142
f 117 142 143
f 117 143 144
f 118 144 161
f 118 161 138
f 119 139 120
f 120 139 145
f 120 145 146
f 120 146 147
f 120 147 121
f 121 147 122
f 122 147 148
f 122 148 149
f 122 149 124
f 124 149 150
f 124 150 125
f 125 151 152
f 125 150 151
f 128 133 140
f 129 131 153
f 129 153 154
f 129 154 130
f 130 154 155
f 130 155 132
f 131 136 156
f 131 156 157
f 131 157 158
f 131 158 153
f 132 155 159
f 132 159 160
f 132 160 140
f 132 140 133
f 137 145 139
f 137 138 145
f 138 161 174
f 138 174 162
f 138 162 145
f 140 160 141
f 141 163 142
f 141 160 163
f 142 163 143
f 143 163 161
f 143 161 144
f 145 162 146
f 146 164 147
f 146 162 174
f 146 174 165
f 146 165 173
f 146 173 166
f 146 166 164
f 147 164 148
f 148 164 149
f 149 164 167
f 149 167 152
f 149 152 150
f 150 152 151
f 152 167 168
f 153 158 154
f 154 158 169
f 154 169 170
f 154 170 155
f 155 170 159
f 157 171 158
f 157 172 171
f 158 171 172
f 158 172 173
f 158 173 169
f 159 173 165
f 159 165 174
f 159 174 163
f 159 163 160
f 159 170 173
f 161 163 174
f 164 175 176
f 164 176 167
f 164 166 175
f 166 173 181
f 166 181 175
f 167 176 177
f 167 177 168
f 169 173 170
f 172 178 173
f 173 178 179
f 173 179 180
f 173 180 181
f 175 181 176
f 176 181 180

